<?xml version="1.0" encoding="us-ascii" standalone="no"?><svg xmlns="http://www.w3.org/2000/svg" xmlns:xlink="http://www.w3.org/1999/xlink" contentStyleType="text/css" height="616px" preserveAspectRatio="none" style="width:2503px;height:616px;background:#FFFFFF;" version="1.1" viewBox="0 0 2503 616" width="2503px" zoomAndPan="magnify"><defs/><g><!--class Org?n ve?ejn? moci--><g id="elem_Org&#225;n ve&#345;ejn&#233; moci"><rect codeLine="2" fill="#F1F1F1" height="210.9688" id="Org&#225;n ve&#345;ejn&#233; moci" rx="2.5" ry="2.5" style="stroke:#181818;stroke-width:0.5;" width="440" x="1198.5" y="132"/><ellipse cx="1344.25" cy="148" fill="#ADD1B2" rx="11" ry="11" style="stroke:#181818;stroke-width:1.0;"/><path d="M1346.5938,143.6719 C1345.6563,143.2344 1345.0625,143.0938 1344.1875,143.0938 C1341.5625,143.0938 1339.5625,145.1719 1339.5625,147.8906 L1339.5625,149.0156 C1339.5625,151.5938 1341.6719,153.4844 1344.5625,153.4844 C1345.7813,153.4844 1346.9375,153.1875 1347.6875,152.6406 C1348.2656,152.2344 1348.5938,151.7813 1348.5938,151.3906 C1348.5938,150.9375 1348.2031,150.5469 1347.7344,150.5469 C1347.5156,150.5469 1347.3125,150.625 1347.125,150.8125 C1346.6719,151.2969 1346.6719,151.2969 1346.4844,151.3906 C1346.0625,151.6563 1345.375,151.7813 1344.6094,151.7813 C1342.5625,151.7813 1341.2656,150.6875 1341.2656,148.9844 L1341.2656,147.8906 C1341.2656,146.1094 1342.5156,144.7969 1344.25,144.7969 C1344.8281,144.7969 1345.4375,144.9531 1345.9063,145.2031 C1346.3906,145.4844 1346.5625,145.7031 1346.6563,146.1094 C1346.7188,146.5156 1346.75,146.6406 1346.8906,146.7656 C1347.0313,146.9063 1347.2656,147.0156 1347.4844,147.0156 C1347.75,147.0156 1348.0156,146.875 1348.1875,146.6563 C1348.2969,146.5 1348.3281,146.3125 1348.3281,145.8906 L1348.3281,144.4688 C1348.3281,144.0313 1348.3125,143.9063 1348.2188,143.75 C1348.0625,143.4844 1347.7813,143.3438 1347.4844,143.3438 C1347.1875,143.3438 1346.9844,143.4375 1346.7656,143.75 L1346.5938,143.6719 Z " fill="#000000"/><text fill="#000000" font-family="sans-serif" font-size="14" lengthAdjust="spacing" textLength="140" x="1364.75" y="152.8467">Org&#225;n ve&#345;ejn&#233; moci</text><line style="stroke:#181818;stroke-width:0.5;" x1="1199.5" x2="1637.5" y1="164" y2="164"/><text fill="#000000" font-family="sans-serif" font-size="14" lengthAdjust="spacing" textLength="265" x="1204.5" y="180.9951">M&#225; identifik&#225;tor org&#225;nu ve&#345;ejn&#233; moci</text><text fill="#000000" font-family="sans-serif" font-size="14" lengthAdjust="spacing" textLength="216" x="1204.5" y="197.292">M&#225; n&#225;zev org&#225;nu ve&#345;ejn&#233; moci</text><text fill="#000000" font-family="sans-serif" font-size="14" lengthAdjust="spacing" textLength="227" x="1204.5" y="213.5889">Je vnit&#345;n&#237; organiza&#269;n&#237; jednotkou</text><text fill="#000000" font-family="sans-serif" font-size="14" lengthAdjust="spacing" textLength="347" x="1204.5" y="229.8857">M&#225; identifika&#269;n&#237; &#269;&#237;slo osoby org&#225;nu ve&#345;ejn&#233; moci</text><text fill="#000000" font-family="sans-serif" font-size="14" lengthAdjust="spacing" textLength="422" x="1204.5" y="246.1826">M&#225; datum zah&#225;jen&#237; v&#253;konu p&#367;sobnosti org&#225;nu ve&#345;ejn&#233; moci</text><text fill="#000000" font-family="sans-serif" font-size="14" lengthAdjust="spacing" textLength="428" x="1204.5" y="262.4795">M&#225; datum ukon&#269;en&#237; v&#253;konu p&#367;sobnosti org&#225;nu ve&#345;ejn&#233; moci</text><text fill="#000000" font-family="sans-serif" font-size="14" lengthAdjust="spacing" textLength="418" x="1204.5" y="278.7764">M&#225; pozastaven&#253; v&#253;kon p&#367;sobnosti org&#225;nu ve&#345;ejn&#233; moci od</text><text fill="#000000" font-family="sans-serif" font-size="14" lengthAdjust="spacing" textLength="418" x="1204.5" y="295.0732">M&#225; pozastaven&#253; v&#253;kon p&#367;sobnosti org&#225;nu ve&#345;ejn&#233; moci do</text><text fill="#000000" font-family="sans-serif" font-size="14" lengthAdjust="spacing" textLength="399" x="1204.5" y="311.3701">M&#225; p&#345;eru&#353;en&#253; v&#253;kon p&#367;sobnosti org&#225;nu ve&#345;ejn&#233; moci od</text><text fill="#000000" font-family="sans-serif" font-size="14" lengthAdjust="spacing" textLength="399" x="1204.5" y="327.667">M&#225; p&#345;eru&#353;en&#253; v&#253;kon p&#367;sobnosti org&#225;nu ve&#345;ejn&#233; moci do</text><line style="stroke:#181818;stroke-width:0.5;" x1="1199.5" x2="1637.5" y1="334.9688" y2="334.9688"/></g><!--class Org?n ve?ejn? moci nebo soukromopr?vn? u?ivatel ?daj?--><g id="elem_Org&#225;n ve&#345;ejn&#233; moci nebo soukromopr&#225;vn&#237; u&#382;ivatel &#250;daj&#367;"><rect codeLine="15" fill="#F1F1F1" height="48" id="Org&#225;n ve&#345;ejn&#233; moci nebo soukromopr&#225;vn&#237; u&#382;ivatel &#250;daj&#367;" rx="2.5" ry="2.5" style="stroke:#181818;stroke-width:0.5;" width="434" x="1586.5" y="7"/><ellipse cx="1601.5" cy="23" fill="#ADD1B2" rx="11" ry="11" style="stroke:#181818;stroke-width:1.0;"/><path d="M1603.8438,18.6719 C1602.9063,18.2344 1602.3125,18.0938 1601.4375,18.0938 C1598.8125,18.0938 1596.8125,20.1719 1596.8125,22.8906 L1596.8125,24.0156 C1596.8125,26.5938 1598.9219,28.4844 1601.8125,28.4844 C1603.0313,28.4844 1604.1875,28.1875 1604.9375,27.6406 C1605.5156,27.2344 1605.8438,26.7813 1605.8438,26.3906 C1605.8438,25.9375 1605.4531,25.5469 1604.9844,25.5469 C1604.7656,25.5469 1604.5625,25.625 1604.375,25.8125 C1603.9219,26.2969 1603.9219,26.2969 1603.7344,26.3906 C1603.3125,26.6563 1602.625,26.7813 1601.8594,26.7813 C1599.8125,26.7813 1598.5156,25.6875 1598.5156,23.9844 L1598.5156,22.8906 C1598.5156,21.1094 1599.7656,19.7969 1601.5,19.7969 C1602.0781,19.7969 1602.6875,19.9531 1603.1563,20.2031 C1603.6406,20.4844 1603.8125,20.7031 1603.9063,21.1094 C1603.9688,21.5156 1604,21.6406 1604.1406,21.7656 C1604.2813,21.9063 1604.5156,22.0156 1604.7344,22.0156 C1605,22.0156 1605.2656,21.875 1605.4375,21.6563 C1605.5469,21.5 1605.5781,21.3125 1605.5781,20.8906 L1605.5781,19.4688 C1605.5781,19.0313 1605.5625,18.9063 1605.4688,18.75 C1605.3125,18.4844 1605.0313,18.3438 1604.7344,18.3438 C1604.4375,18.3438 1604.2344,18.4375 1604.0156,18.75 L1603.8438,18.6719 Z " fill="#000000"/><text fill="#000000" font-family="sans-serif" font-size="14" lengthAdjust="spacing" textLength="402" x="1615.5" y="27.8467">Org&#225;n ve&#345;ejn&#233; moci nebo soukromopr&#225;vn&#237; u&#382;ivatel &#250;daj&#367;</text><line style="stroke:#181818;stroke-width:0.5;" x1="1587.5" x2="2019.5" y1="39" y2="39"/><line style="stroke:#181818;stroke-width:0.5;" x1="1587.5" x2="2019.5" y1="47" y2="47"/></g><!--class Datov? schr?nka--><g id="elem_Datov&#225; schr&#225;nka"><rect codeLine="18" fill="#F1F1F1" height="48" id="Datov&#225; schr&#225;nka" rx="2.5" ry="2.5" style="stroke:#181818;stroke-width:0.5;" width="151" x="537" y="428"/><ellipse cx="552" cy="444" fill="#ADD1B2" rx="11" ry="11" style="stroke:#181818;stroke-width:1.0;"/><path d="M554.3438,439.6719 C553.4063,439.2344 552.8125,439.0938 551.9375,439.0938 C549.3125,439.0938 547.3125,441.1719 547.3125,443.8906 L547.3125,445.0156 C547.3125,447.5938 549.4219,449.4844 552.3125,449.4844 C553.5313,449.4844 554.6875,449.1875 555.4375,448.6406 C556.0156,448.2344 556.3438,447.7813 556.3438,447.3906 C556.3438,446.9375 555.9531,446.5469 555.4844,446.5469 C555.2656,446.5469 555.0625,446.625 554.875,446.8125 C554.4219,447.2969 554.4219,447.2969 554.2344,447.3906 C553.8125,447.6563 553.125,447.7813 552.3594,447.7813 C550.3125,447.7813 549.0156,446.6875 549.0156,444.9844 L549.0156,443.8906 C549.0156,442.1094 550.2656,440.7969 552,440.7969 C552.5781,440.7969 553.1875,440.9531 553.6563,441.2031 C554.1406,441.4844 554.3125,441.7031 554.4063,442.1094 C554.4688,442.5156 554.5,442.6406 554.6406,442.7656 C554.7813,442.9063 555.0156,443.0156 555.2344,443.0156 C555.5,443.0156 555.7656,442.875 555.9375,442.6563 C556.0469,442.5 556.0781,442.3125 556.0781,441.8906 L556.0781,440.4688 C556.0781,440.0313 556.0625,439.9063 555.9688,439.75 C555.8125,439.4844 555.5313,439.3438 555.2344,439.3438 C554.9375,439.3438 554.7344,439.4375 554.5156,439.75 L554.3438,439.6719 Z " fill="#000000"/><text fill="#000000" font-family="sans-serif" font-size="14" lengthAdjust="spacing" textLength="119" x="566" y="448.8467">Datov&#225; schr&#225;nka</text><line style="stroke:#181818;stroke-width:0.5;" x1="538" x2="687" y1="460" y2="460"/><line style="stroke:#181818;stroke-width:0.5;" x1="538" x2="687" y1="468" y2="468"/></g><!--class Ustanoven? pr?vn?ho p?edpisu--><g id="elem_Ustanoven&#237; pr&#225;vn&#237;ho p&#345;edpisu"><rect codeLine="21" fill="#F1F1F1" height="48" id="Ustanoven&#237; pr&#225;vn&#237;ho p&#345;edpisu" rx="2.5" ry="2.5" style="stroke:#181818;stroke-width:0.5;" width="245" x="805" y="428"/><ellipse cx="820" cy="444" fill="#ADD1B2" rx="11" ry="11" style="stroke:#181818;stroke-width:1.0;"/><path d="M822.3438,439.6719 C821.4063,439.2344 820.8125,439.0938 819.9375,439.0938 C817.3125,439.0938 815.3125,441.1719 815.3125,443.8906 L815.3125,445.0156 C815.3125,447.5938 817.4219,449.4844 820.3125,449.4844 C821.5313,449.4844 822.6875,449.1875 823.4375,448.6406 C824.0156,448.2344 824.3438,447.7813 824.3438,447.3906 C824.3438,446.9375 823.9531,446.5469 823.4844,446.5469 C823.2656,446.5469 823.0625,446.625 822.875,446.8125 C822.4219,447.2969 822.4219,447.2969 822.2344,447.3906 C821.8125,447.6563 821.125,447.7813 820.3594,447.7813 C818.3125,447.7813 817.0156,446.6875 817.0156,444.9844 L817.0156,443.8906 C817.0156,442.1094 818.2656,440.7969 820,440.7969 C820.5781,440.7969 821.1875,440.9531 821.6563,441.2031 C822.1406,441.4844 822.3125,441.7031 822.4063,442.1094 C822.4688,442.5156 822.5,442.6406 822.6406,442.7656 C822.7813,442.9063 823.0156,443.0156 823.2344,443.0156 C823.5,443.0156 823.7656,442.875 823.9375,442.6563 C824.0469,442.5 824.0781,442.3125 824.0781,441.8906 L824.0781,440.4688 C824.0781,440.0313 824.0625,439.9063 823.9688,439.75 C823.8125,439.4844 823.5313,439.3438 823.2344,439.3438 C822.9375,439.3438 822.7344,439.4375 822.5156,439.75 L822.3438,439.6719 Z " fill="#000000"/><text fill="#000000" font-family="sans-serif" font-size="14" lengthAdjust="spacing" textLength="213" x="834" y="448.8467">Ustanoven&#237; pr&#225;vn&#237;ho p&#345;edpisu</text><line style="stroke:#181818;stroke-width:0.5;" x1="806" x2="1049" y1="460" y2="460"/><line style="stroke:#181818;stroke-width:0.5;" x1="806" x2="1049" y1="468" y2="468"/></g><!--class Za?azen? do kategorie--><g id="elem_Za&#345;azen&#237; do kategorie"><rect codeLine="24" fill="#F1F1F1" height="80.5938" id="Za&#345;azen&#237; do kategorie" rx="2.5" ry="2.5" style="stroke:#181818;stroke-width:0.5;" width="242" x="2069.5" y="197"/><ellipse cx="2107.9" cy="213" fill="#ADD1B2" rx="11" ry="11" style="stroke:#181818;stroke-width:1.0;"/><path d="M2110.2438,208.6719 C2109.3063,208.2344 2108.7125,208.0938 2107.8375,208.0938 C2105.2125,208.0938 2103.2125,210.1719 2103.2125,212.8906 L2103.2125,214.0156 C2103.2125,216.5938 2105.3219,218.4844 2108.2125,218.4844 C2109.4313,218.4844 2110.5875,218.1875 2111.3375,217.6406 C2111.9156,217.2344 2112.2438,216.7813 2112.2438,216.3906 C2112.2438,215.9375 2111.8531,215.5469 2111.3844,215.5469 C2111.1656,215.5469 2110.9625,215.625 2110.775,215.8125 C2110.3219,216.2969 2110.3219,216.2969 2110.1344,216.3906 C2109.7125,216.6563 2109.025,216.7813 2108.2594,216.7813 C2106.2125,216.7813 2104.9156,215.6875 2104.9156,213.9844 L2104.9156,212.8906 C2104.9156,211.1094 2106.1656,209.7969 2107.9,209.7969 C2108.4781,209.7969 2109.0875,209.9531 2109.5563,210.2031 C2110.0406,210.4844 2110.2125,210.7031 2110.3063,211.1094 C2110.3688,211.5156 2110.4,211.6406 2110.5406,211.7656 C2110.6813,211.9063 2110.9156,212.0156 2111.1344,212.0156 C2111.4,212.0156 2111.6656,211.875 2111.8375,211.6563 C2111.9469,211.5 2111.9781,211.3125 2111.9781,210.8906 L2111.9781,209.4688 C2111.9781,209.0313 2111.9625,208.9063 2111.8688,208.75 C2111.7125,208.4844 2111.4313,208.3438 2111.1344,208.3438 C2110.8375,208.3438 2110.6344,208.4375 2110.4156,208.75 L2110.2438,208.6719 Z " fill="#000000"/><text fill="#000000" font-family="sans-serif" font-size="14" lengthAdjust="spacing" textLength="158" x="2127.1" y="217.8467">Za&#345;azen&#237; do kategorie</text><line style="stroke:#181818;stroke-width:0.5;" x1="2070.5" x2="2310.5" y1="229" y2="229"/><text fill="#000000" font-family="sans-serif" font-size="14" lengthAdjust="spacing" textLength="230" x="2075.5" y="245.9951">M&#225; datum za&#345;azen&#237; do kategorie</text><text fill="#000000" font-family="sans-serif" font-size="14" lengthAdjust="spacing" textLength="220" x="2075.5" y="262.292">M&#225; datum vy&#345;azen&#237; z kategorie</text><line style="stroke:#181818;stroke-width:0.5;" x1="2070.5" x2="2310.5" y1="269.5938" y2="269.5938"/></g><!--class Kategorie--><g id="elem_Kategorie"><rect codeLine="29" fill="#F1F1F1" height="48" id="Kategorie" rx="2.5" ry="2.5" style="stroke:#181818;stroke-width:0.5;" width="103" x="2369" y="428"/><ellipse cx="2384" cy="444" fill="#ADD1B2" rx="11" ry="11" style="stroke:#181818;stroke-width:1.0;"/><path d="M2386.3438,439.6719 C2385.4063,439.2344 2384.8125,439.0938 2383.9375,439.0938 C2381.3125,439.0938 2379.3125,441.1719 2379.3125,443.8906 L2379.3125,445.0156 C2379.3125,447.5938 2381.4219,449.4844 2384.3125,449.4844 C2385.5313,449.4844 2386.6875,449.1875 2387.4375,448.6406 C2388.0156,448.2344 2388.3438,447.7813 2388.3438,447.3906 C2388.3438,446.9375 2387.9531,446.5469 2387.4844,446.5469 C2387.2656,446.5469 2387.0625,446.625 2386.875,446.8125 C2386.4219,447.2969 2386.4219,447.2969 2386.2344,447.3906 C2385.8125,447.6563 2385.125,447.7813 2384.3594,447.7813 C2382.3125,447.7813 2381.0156,446.6875 2381.0156,444.9844 L2381.0156,443.8906 C2381.0156,442.1094 2382.2656,440.7969 2384,440.7969 C2384.5781,440.7969 2385.1875,440.9531 2385.6563,441.2031 C2386.1406,441.4844 2386.3125,441.7031 2386.4063,442.1094 C2386.4688,442.5156 2386.5,442.6406 2386.6406,442.7656 C2386.7813,442.9063 2387.0156,443.0156 2387.2344,443.0156 C2387.5,443.0156 2387.7656,442.875 2387.9375,442.6563 C2388.0469,442.5 2388.0781,442.3125 2388.0781,441.8906 L2388.0781,440.4688 C2388.0781,440.0313 2388.0625,439.9063 2387.9688,439.75 C2387.8125,439.4844 2387.5313,439.3438 2387.2344,439.3438 C2386.9375,439.3438 2386.7344,439.4375 2386.5156,439.75 L2386.3438,439.6719 Z " fill="#000000"/><text fill="#000000" font-family="sans-serif" font-size="14" lengthAdjust="spacing" textLength="71" x="2398" y="448.8467">Kategorie</text><line style="stroke:#181818;stroke-width:0.5;" x1="2370" x2="2471" y1="460" y2="460"/><line style="stroke:#181818;stroke-width:0.5;" x1="2370" x2="2471" y1="468" y2="468"/></g><!--class adresn? m?sto--><g id="elem_adresn&#237; m&#237;sto"><rect codeLine="32" fill="#F1F1F1" height="64.2969" id="adresn&#237; m&#237;sto" rx="2.5" ry="2.5" style="stroke:#181818;stroke-width:0.5;" width="157" x="1415" y="420"/><ellipse cx="1442.6" cy="436" fill="#ADD1B2" rx="11" ry="11" style="stroke:#181818;stroke-width:1.0;"/><path d="M1444.9438,431.6719 C1444.0063,431.2344 1443.4125,431.0938 1442.5375,431.0938 C1439.9125,431.0938 1437.9125,433.1719 1437.9125,435.8906 L1437.9125,437.0156 C1437.9125,439.5938 1440.0219,441.4844 1442.9125,441.4844 C1444.1313,441.4844 1445.2875,441.1875 1446.0375,440.6406 C1446.6156,440.2344 1446.9438,439.7813 1446.9438,439.3906 C1446.9438,438.9375 1446.5531,438.5469 1446.0844,438.5469 C1445.8656,438.5469 1445.6625,438.625 1445.475,438.8125 C1445.0219,439.2969 1445.0219,439.2969 1444.8344,439.3906 C1444.4125,439.6563 1443.725,439.7813 1442.9594,439.7813 C1440.9125,439.7813 1439.6156,438.6875 1439.6156,436.9844 L1439.6156,435.8906 C1439.6156,434.1094 1440.8656,432.7969 1442.6,432.7969 C1443.1781,432.7969 1443.7875,432.9531 1444.2563,433.2031 C1444.7406,433.4844 1444.9125,433.7031 1445.0063,434.1094 C1445.0688,434.5156 1445.1,434.6406 1445.2406,434.7656 C1445.3813,434.9063 1445.6156,435.0156 1445.8344,435.0156 C1446.1,435.0156 1446.3656,434.875 1446.5375,434.6563 C1446.6469,434.5 1446.6781,434.3125 1446.6781,433.8906 L1446.6781,432.4688 C1446.6781,432.0313 1446.6625,431.9063 1446.5688,431.75 C1446.4125,431.4844 1446.1313,431.3438 1445.8344,431.3438 C1445.5375,431.3438 1445.3344,431.4375 1445.1156,431.75 L1444.9438,431.6719 Z " fill="#000000"/><text fill="#000000" font-family="sans-serif" font-size="14" lengthAdjust="spacing" textLength="97" x="1459.4" y="440.8467">adresn&#237; m&#237;sto</text><line style="stroke:#181818;stroke-width:0.5;" x1="1416" x2="1571" y1="452" y2="452"/><text fill="#000000" font-family="sans-serif" font-size="14" lengthAdjust="spacing" textLength="145" x="1421" y="468.9951">k&#243;d adresn&#237;ho m&#237;sta</text><line style="stroke:#181818;stroke-width:0.5;" x1="1416" x2="1571" y1="476.2969" y2="476.2969"/></g><!--class Osoba stoj?c? v ?ele org?nu ve?ejn? moci--><g id="elem_Osoba stoj&#237;c&#237; v &#269;ele org&#225;nu ve&#345;ejn&#233; moci"><rect codeLine="36" fill="#F1F1F1" height="64.2969" id="Osoba stoj&#237;c&#237; v &#269;ele org&#225;nu ve&#345;ejn&#233; moci" rx="2.5" ry="2.5" style="stroke:#181818;stroke-width:0.5;" width="447" x="1607" y="420"/><ellipse cx="1682.25" cy="436" fill="#ADD1B2" rx="11" ry="11" style="stroke:#181818;stroke-width:1.0;"/><path d="M1684.5938,431.6719 C1683.6563,431.2344 1683.0625,431.0938 1682.1875,431.0938 C1679.5625,431.0938 1677.5625,433.1719 1677.5625,435.8906 L1677.5625,437.0156 C1677.5625,439.5938 1679.6719,441.4844 1682.5625,441.4844 C1683.7813,441.4844 1684.9375,441.1875 1685.6875,440.6406 C1686.2656,440.2344 1686.5938,439.7813 1686.5938,439.3906 C1686.5938,438.9375 1686.2031,438.5469 1685.7344,438.5469 C1685.5156,438.5469 1685.3125,438.625 1685.125,438.8125 C1684.6719,439.2969 1684.6719,439.2969 1684.4844,439.3906 C1684.0625,439.6563 1683.375,439.7813 1682.6094,439.7813 C1680.5625,439.7813 1679.2656,438.6875 1679.2656,436.9844 L1679.2656,435.8906 C1679.2656,434.1094 1680.5156,432.7969 1682.25,432.7969 C1682.8281,432.7969 1683.4375,432.9531 1683.9063,433.2031 C1684.3906,433.4844 1684.5625,433.7031 1684.6563,434.1094 C1684.7188,434.5156 1684.75,434.6406 1684.8906,434.7656 C1685.0313,434.9063 1685.2656,435.0156 1685.4844,435.0156 C1685.75,435.0156 1686.0156,434.875 1686.1875,434.6563 C1686.2969,434.5 1686.3281,434.3125 1686.3281,433.8906 L1686.3281,432.4688 C1686.3281,432.0313 1686.3125,431.9063 1686.2188,431.75 C1686.0625,431.4844 1685.7813,431.3438 1685.4844,431.3438 C1685.1875,431.3438 1684.9844,431.4375 1684.7656,431.75 L1684.5938,431.6719 Z " fill="#000000"/><text fill="#000000" font-family="sans-serif" font-size="14" lengthAdjust="spacing" textLength="288" x="1702.75" y="440.8467">Osoba stoj&#237;c&#237; v &#269;ele org&#225;nu ve&#345;ejn&#233; moci</text><line style="stroke:#181818;stroke-width:0.5;" x1="1608" x2="2053" y1="452" y2="452"/><text fill="#000000" font-family="sans-serif" font-size="14" lengthAdjust="spacing" textLength="435" x="1613" y="468.9951">M&#225; jm&#233;no a p&#345;&#237;jmen&#237; osoby stoj&#237;c&#237; v &#269;ele org&#225;nu ve&#345;ejn&#233; moci</text><line style="stroke:#181818;stroke-width:0.5;" x1="1608" x2="2053" y1="476.2969" y2="476.2969"/></g><!--class Pracovi?t?--><g id="elem_Pracovi&#353;t&#283;"><rect codeLine="40" fill="#F1F1F1" height="48" id="Pracovi&#353;t&#283;" rx="2.5" ry="2.5" style="stroke:#181818;stroke-width:0.5;" width="107" x="1873" y="561"/><ellipse cx="1888" cy="577" fill="#ADD1B2" rx="11" ry="11" style="stroke:#181818;stroke-width:1.0;"/><path d="M1890.3438,572.6719 C1889.4063,572.2344 1888.8125,572.0938 1887.9375,572.0938 C1885.3125,572.0938 1883.3125,574.1719 1883.3125,576.8906 L1883.3125,578.0156 C1883.3125,580.5938 1885.4219,582.4844 1888.3125,582.4844 C1889.5313,582.4844 1890.6875,582.1875 1891.4375,581.6406 C1892.0156,581.2344 1892.3438,580.7813 1892.3438,580.3906 C1892.3438,579.9375 1891.9531,579.5469 1891.4844,579.5469 C1891.2656,579.5469 1891.0625,579.625 1890.875,579.8125 C1890.4219,580.2969 1890.4219,580.2969 1890.2344,580.3906 C1889.8125,580.6563 1889.125,580.7813 1888.3594,580.7813 C1886.3125,580.7813 1885.0156,579.6875 1885.0156,577.9844 L1885.0156,576.8906 C1885.0156,575.1094 1886.2656,573.7969 1888,573.7969 C1888.5781,573.7969 1889.1875,573.9531 1889.6563,574.2031 C1890.1406,574.4844 1890.3125,574.7031 1890.4063,575.1094 C1890.4688,575.5156 1890.5,575.6406 1890.6406,575.7656 C1890.7813,575.9063 1891.0156,576.0156 1891.2344,576.0156 C1891.5,576.0156 1891.7656,575.875 1891.9375,575.6563 C1892.0469,575.5 1892.0781,575.3125 1892.0781,574.8906 L1892.0781,573.4688 C1892.0781,573.0313 1892.0625,572.9063 1891.9688,572.75 C1891.8125,572.4844 1891.5313,572.3438 1891.2344,572.3438 C1890.9375,572.3438 1890.7344,572.4375 1890.5156,572.75 L1890.3438,572.6719 Z " fill="#000000"/><text fill="#000000" font-family="sans-serif" font-size="14" lengthAdjust="spacing" textLength="75" x="1902" y="581.8467">Pracovi&#353;t&#283;</text><line style="stroke:#181818;stroke-width:0.5;" x1="1874" x2="1979" y1="593" y2="593"/><line style="stroke:#181818;stroke-width:0.5;" x1="1874" x2="1979" y1="601" y2="601"/></g><!--class Pr?vnick? osoba se sv??enou p?sobnost? v oblasti ve?ejn? spr?vy--><g id="elem_Pr&#225;vnick&#225; osoba se sv&#283;&#345;enou p&#367;sobnost&#237; v oblasti ve&#345;ejn&#233; spr&#225;vy"><rect codeLine="43" fill="#F1F1F1" height="48" id="Pr&#225;vnick&#225; osoba se sv&#283;&#345;enou p&#367;sobnost&#237; v oblasti ve&#345;ejn&#233; spr&#225;vy" rx="2.5" ry="2.5" style="stroke:#181818;stroke-width:0.5;" width="495" x="7" y="428"/><ellipse cx="22" cy="444" fill="#ADD1B2" rx="11" ry="11" style="stroke:#181818;stroke-width:1.0;"/><path d="M24.3438,439.6719 C23.4063,439.2344 22.8125,439.0938 21.9375,439.0938 C19.3125,439.0938 17.3125,441.1719 17.3125,443.8906 L17.3125,445.0156 C17.3125,447.5938 19.4219,449.4844 22.3125,449.4844 C23.5313,449.4844 24.6875,449.1875 25.4375,448.6406 C26.0156,448.2344 26.3438,447.7813 26.3438,447.3906 C26.3438,446.9375 25.9531,446.5469 25.4844,446.5469 C25.2656,446.5469 25.0625,446.625 24.875,446.8125 C24.4219,447.2969 24.4219,447.2969 24.2344,447.3906 C23.8125,447.6563 23.125,447.7813 22.3594,447.7813 C20.3125,447.7813 19.0156,446.6875 19.0156,444.9844 L19.0156,443.8906 C19.0156,442.1094 20.2656,440.7969 22,440.7969 C22.5781,440.7969 23.1875,440.9531 23.6563,441.2031 C24.1406,441.4844 24.3125,441.7031 24.4063,442.1094 C24.4688,442.5156 24.5,442.6406 24.6406,442.7656 C24.7813,442.9063 25.0156,443.0156 25.2344,443.0156 C25.5,443.0156 25.7656,442.875 25.9375,442.6563 C26.0469,442.5 26.0781,442.3125 26.0781,441.8906 L26.0781,440.4688 C26.0781,440.0313 26.0625,439.9063 25.9688,439.75 C25.8125,439.4844 25.5313,439.3438 25.2344,439.3438 C24.9375,439.3438 24.7344,439.4375 24.5156,439.75 L24.3438,439.6719 Z " fill="#000000"/><text fill="#000000" font-family="sans-serif" font-size="14" lengthAdjust="spacing" textLength="463" x="36" y="448.8467">Pr&#225;vnick&#225; osoba se sv&#283;&#345;enou p&#367;sobnost&#237; v oblasti ve&#345;ejn&#233; spr&#225;vy</text><line style="stroke:#181818;stroke-width:0.5;" x1="8" x2="501" y1="460" y2="460"/><line style="stroke:#181818;stroke-width:0.5;" x1="8" x2="501" y1="468" y2="468"/></g><!--class Pr?vnick? osoba--><g id="elem_Pr&#225;vnick&#225; osoba"><rect codeLine="46" fill="#F1F1F1" height="48" id="Pr&#225;vnick&#225; osoba" rx="2.5" ry="2.5" style="stroke:#181818;stroke-width:0.5;" width="148" x="180.5" y="213.5"/><ellipse cx="195.5" cy="229.5" fill="#ADD1B2" rx="11" ry="11" style="stroke:#181818;stroke-width:1.0;"/><path d="M197.8438,225.1719 C196.9063,224.7344 196.3125,224.5938 195.4375,224.5938 C192.8125,224.5938 190.8125,226.6719 190.8125,229.3906 L190.8125,230.5156 C190.8125,233.0938 192.9219,234.9844 195.8125,234.9844 C197.0313,234.9844 198.1875,234.6875 198.9375,234.1406 C199.5156,233.7344 199.8438,233.2813 199.8438,232.8906 C199.8438,232.4375 199.4531,232.0469 198.9844,232.0469 C198.7656,232.0469 198.5625,232.125 198.375,232.3125 C197.9219,232.7969 197.9219,232.7969 197.7344,232.8906 C197.3125,233.1563 196.625,233.2813 195.8594,233.2813 C193.8125,233.2813 192.5156,232.1875 192.5156,230.4844 L192.5156,229.3906 C192.5156,227.6094 193.7656,226.2969 195.5,226.2969 C196.0781,226.2969 196.6875,226.4531 197.1563,226.7031 C197.6406,226.9844 197.8125,227.2031 197.9063,227.6094 C197.9688,228.0156 198,228.1406 198.1406,228.2656 C198.2813,228.4063 198.5156,228.5156 198.7344,228.5156 C199,228.5156 199.2656,228.375 199.4375,228.1563 C199.5469,228 199.5781,227.8125 199.5781,227.3906 L199.5781,225.9688 C199.5781,225.5313 199.5625,225.4063 199.4688,225.25 C199.3125,224.9844 199.0313,224.8438 198.7344,224.8438 C198.4375,224.8438 198.2344,224.9375 198.0156,225.25 L197.8438,225.1719 Z " fill="#000000"/><text fill="#000000" font-family="sans-serif" font-size="14" lengthAdjust="spacing" textLength="116" x="209.5" y="234.3467">Pr&#225;vnick&#225; osoba</text><line style="stroke:#181818;stroke-width:0.5;" x1="181.5" x2="327.5" y1="245.5" y2="245.5"/><line style="stroke:#181818;stroke-width:0.5;" x1="181.5" x2="327.5" y1="253.5" y2="253.5"/></g><!--class Osoba--><g id="elem_Osoba"><rect codeLine="49" fill="#F1F1F1" height="48" id="Osoba" rx="2.5" ry="2.5" style="stroke:#181818;stroke-width:0.5;" width="77" x="330" y="7"/><ellipse cx="345" cy="23" fill="#ADD1B2" rx="11" ry="11" style="stroke:#181818;stroke-width:1.0;"/><path d="M347.3438,18.6719 C346.4063,18.2344 345.8125,18.0938 344.9375,18.0938 C342.3125,18.0938 340.3125,20.1719 340.3125,22.8906 L340.3125,24.0156 C340.3125,26.5938 342.4219,28.4844 345.3125,28.4844 C346.5313,28.4844 347.6875,28.1875 348.4375,27.6406 C349.0156,27.2344 349.3438,26.7813 349.3438,26.3906 C349.3438,25.9375 348.9531,25.5469 348.4844,25.5469 C348.2656,25.5469 348.0625,25.625 347.875,25.8125 C347.4219,26.2969 347.4219,26.2969 347.2344,26.3906 C346.8125,26.6563 346.125,26.7813 345.3594,26.7813 C343.3125,26.7813 342.0156,25.6875 342.0156,23.9844 L342.0156,22.8906 C342.0156,21.1094 343.2656,19.7969 345,19.7969 C345.5781,19.7969 346.1875,19.9531 346.6563,20.2031 C347.1406,20.4844 347.3125,20.7031 347.4063,21.1094 C347.4688,21.5156 347.5,21.6406 347.6406,21.7656 C347.7813,21.9063 348.0156,22.0156 348.2344,22.0156 C348.5,22.0156 348.7656,21.875 348.9375,21.6563 C349.0469,21.5 349.0781,21.3125 349.0781,20.8906 L349.0781,19.4688 C349.0781,19.0313 349.0625,18.9063 348.9688,18.75 C348.8125,18.4844 348.5313,18.3438 348.2344,18.3438 C347.9375,18.3438 347.7344,18.4375 347.5156,18.75 L347.3438,18.6719 Z " fill="#000000"/><text fill="#000000" font-family="sans-serif" font-size="14" lengthAdjust="spacing" textLength="45" x="359" y="27.8467">Osoba</text><line style="stroke:#181818;stroke-width:0.5;" x1="331" x2="406" y1="39" y2="39"/><line style="stroke:#181818;stroke-width:0.5;" x1="331" x2="406" y1="47" y2="47"/></g><!--class Pr?vn? forma--><g id="elem_Pr&#225;vn&#237; forma"><rect codeLine="52" fill="#F1F1F1" height="48" id="Pr&#225;vn&#237; forma" rx="2.5" ry="2.5" style="stroke:#181818;stroke-width:0.5;" width="123" x="364" y="213.5"/><ellipse cx="379" cy="229.5" fill="#ADD1B2" rx="11" ry="11" style="stroke:#181818;stroke-width:1.0;"/><path d="M381.3438,225.1719 C380.4063,224.7344 379.8125,224.5938 378.9375,224.5938 C376.3125,224.5938 374.3125,226.6719 374.3125,229.3906 L374.3125,230.5156 C374.3125,233.0938 376.4219,234.9844 379.3125,234.9844 C380.5313,234.9844 381.6875,234.6875 382.4375,234.1406 C383.0156,233.7344 383.3438,233.2813 383.3438,232.8906 C383.3438,232.4375 382.9531,232.0469 382.4844,232.0469 C382.2656,232.0469 382.0625,232.125 381.875,232.3125 C381.4219,232.7969 381.4219,232.7969 381.2344,232.8906 C380.8125,233.1563 380.125,233.2813 379.3594,233.2813 C377.3125,233.2813 376.0156,232.1875 376.0156,230.4844 L376.0156,229.3906 C376.0156,227.6094 377.2656,226.2969 379,226.2969 C379.5781,226.2969 380.1875,226.4531 380.6563,226.7031 C381.1406,226.9844 381.3125,227.2031 381.4063,227.6094 C381.4688,228.0156 381.5,228.1406 381.6406,228.2656 C381.7813,228.4063 382.0156,228.5156 382.2344,228.5156 C382.5,228.5156 382.7656,228.375 382.9375,228.1563 C383.0469,228 383.0781,227.8125 383.0781,227.3906 L383.0781,225.9688 C383.0781,225.5313 383.0625,225.4063 382.9688,225.25 C382.8125,224.9844 382.5313,224.8438 382.2344,224.8438 C381.9375,224.8438 381.7344,224.9375 381.5156,225.25 L381.3438,225.1719 Z " fill="#000000"/><text fill="#000000" font-family="sans-serif" font-size="14" lengthAdjust="spacing" textLength="91" x="393" y="234.3467">Pr&#225;vn&#237; forma</text><line style="stroke:#181818;stroke-width:0.5;" x1="365" x2="486" y1="245.5" y2="245.5"/><line style="stroke:#181818;stroke-width:0.5;" x1="365" x2="486" y1="253.5" y2="253.5"/></g><!--reverse link Org?n ve?ejn? moci nebo soukromopr?vn? u?ivatel ?daj? to Org?n ve?ejn? moci--><g id="link_Org&#225;n ve&#345;ejn&#233; moci nebo soukromopr&#225;vn&#237; u&#382;ivatel &#250;daj&#367;_Org&#225;n ve&#345;ejn&#233; moci"><path codeLine="55" d="M1742.4,64.455 C1707.5,82.99 1661.59,107.378 1615.34,131.944 " fill="none" id="Org&#225;n ve&#345;ejn&#233; moci nebo soukromopr&#225;vn&#237; u&#382;ivatel &#250;daj&#367;-backto-Org&#225;n ve&#345;ejn&#233; moci" style="stroke:#181818;stroke-width:1.0;"/><polygon fill="none" points="1739.14,58.261,1760.08,55.061,1745.7,70.625,1739.14,58.261" style="stroke:#181818;stroke-width:1.0;"/></g><!--reverse link Org?n ve?ejn? moci to Pr?vnick? osoba se sv??enou p?sobnost? v oblasti ve?ejn? spr?vy--><g id="link_Org&#225;n ve&#345;ejn&#233; moci_Pr&#225;vnick&#225; osoba se sv&#283;&#345;enou p&#367;sobnost&#237; v oblasti ve&#345;ejn&#233; spr&#225;vy"><path codeLine="56" d="M1178.74,277.255 C1022.63,303.036 814.693,338.406 631.5,373 C539.881,390.301 436.166,411.908 360.743,427.991 " fill="none" id="Org&#225;n ve&#345;ejn&#233; moci-backto-Pr&#225;vnick&#225; osoba se sv&#283;&#345;enou p&#367;sobnost&#237; v oblasti ve&#345;ejn&#233; spr&#225;vy" style="stroke:#181818;stroke-width:1.0;"/><polygon fill="none" points="1177.6,270.348,1198.48,274.001,1179.88,284.161,1177.6,270.348" style="stroke:#181818;stroke-width:1.0;"/></g><!--reverse link Pr?vnick? osoba to Pr?vnick? osoba se sv??enou p?sobnost? v oblasti ve?ejn? spr?vy--><g id="link_Pr&#225;vnick&#225; osoba_Pr&#225;vnick&#225; osoba se sv&#283;&#345;enou p&#367;sobnost&#237; v oblasti ve&#345;ejn&#233; spr&#225;vy"><path codeLine="57" d="M254.5,281.84 C254.5,326.037 254.5,392.932 254.5,427.883 " fill="none" id="Pr&#225;vnick&#225; osoba-backto-Pr&#225;vnick&#225; osoba se sv&#283;&#345;enou p&#367;sobnost&#237; v oblasti ve&#345;ejn&#233; spr&#225;vy" style="stroke:#181818;stroke-width:1.0;"/><polygon fill="none" points="247.5,281.646,254.5,261.646,261.5,281.646,247.5,281.646" style="stroke:#181818;stroke-width:1.0;"/></g><!--reverse link Osoba to Pr?vnick? osoba--><g id="link_Osoba_Pr&#225;vnick&#225; osoba"><path codeLine="58" d="M345.841,72.648 C322.38,114.733 286.546,179.015 267.484,213.209 " fill="none" id="Osoba-backto-Pr&#225;vnick&#225; osoba" style="stroke:#181818;stroke-width:1.0;"/><polygon fill="none" points="339.792,69.122,355.644,55.061,352.02,75.939,339.792,69.122" style="stroke:#181818;stroke-width:1.0;"/></g><!--link Org?n ve?ejn? moci to Datov? schr?nka--><g id="link_Org&#225;n ve&#345;ejn&#233; moci_Datov&#225; schr&#225;nka"><path codeLine="59" d="M1198.32,256.195 C1004.658,275.499 740.708,312.076 655.5,373 C637.01,386.221 625.576,409.977 619.192,427.81 " fill="none" id="Org&#225;n ve&#345;ejn&#233; moci-Datov&#225; schr&#225;nka" style="stroke:#181818;stroke-width:1.0;"/><text fill="#000000" font-family="sans-serif" font-size="13" lengthAdjust="spacing" textLength="273" x="656.5" y="386.0669">M&#225; datovou schr&#225;nku org&#225;nu ve&#345;ejn&#233; moci</text></g><!--link Org?n ve?ejn? moci to Ustanoven? pr?vn?ho p?edpisu--><g id="link_Org&#225;n ve&#345;ejn&#233; moci_Ustanoven&#237; pr&#225;vn&#237;ho p&#345;edpisu"><path codeLine="60" d="M1198.46,254.863 C1110.2,272.201 1014.07,306.392 948.5,373 C934.235,387.491 929.392,410.59 927.875,427.897 " fill="none" id="Org&#225;n ve&#345;ejn&#233; moci-Ustanoven&#237; pr&#225;vn&#237;ho p&#345;edpisu" style="stroke:#181818;stroke-width:1.0;"/><text fill="#000000" font-family="sans-serif" font-size="13" lengthAdjust="spacing" textLength="283" x="949.5" y="386.0669">Vykon&#225;v&#225; p&#367;sobnost na z&#225;klad&#283; ustanoven&#237;</text><text fill="#000000" font-family="sans-serif" font-size="13" lengthAdjust="spacing" textLength="24" x="900.8961" y="416.8826">1..1</text></g><!--link Org?n ve?ejn? moci to adresn? m?sto--><g id="link_Org&#225;n ve&#345;ejn&#233; moci_adresn&#237; m&#237;sto"><path codeLine="61" d="M1243.56,343.02 C1236.38,358.01 1236.89,373.85 1249.5,390 C1269.86,416.071 1351.57,432.648 1414.9,441.838 " fill="none" id="Org&#225;n ve&#345;ejn&#233; moci-adresn&#237; m&#237;sto" style="stroke:#181818;stroke-width:1.0;"/><text fill="#000000" font-family="sans-serif" font-size="13" lengthAdjust="spacing" textLength="291" x="1250.5" y="386.0669">M&#225; adresu m&#237;sta pobytu org&#225;nu ve&#345;ejn&#233; moci</text><text fill="#000000" font-family="sans-serif" font-size="13" lengthAdjust="spacing" textLength="24" x="1383.1141" y="437.38">0..1</text></g><!--link Org?n ve?ejn? moci to adresn? m?sto--><g id="link_Org&#225;n ve&#345;ejn&#233; moci_adresn&#237; m&#237;sto"><path codeLine="62" d="M1530.88,343.138 C1537.03,352.688 1542.37,362.674 1546.5,373 C1553.12,389.57 1544.5,406.171 1532.41,419.771 " fill="none" id="Org&#225;n ve&#345;ejn&#233; moci-adresn&#237; m&#237;sto-1" style="stroke:#181818;stroke-width:1.0;"/><text fill="#000000" font-family="sans-serif" font-size="13" lengthAdjust="spacing" textLength="235" x="1550.5" y="386.0669">M&#225; adresu s&#237;dla org&#225;nu ve&#345;ejn&#233; moci</text><text fill="#000000" font-family="sans-serif" font-size="13" lengthAdjust="spacing" textLength="24" x="1513.7079" y="409.0001">0..1</text></g><!--link Org?n ve?ejn? moci to Osoba stoj?c? v ?ele org?nu ve?ejn? moci--><g id="link_Org&#225;n ve&#345;ejn&#233; moci_Osoba stoj&#237;c&#237; v &#269;ele org&#225;nu ve&#345;ejn&#233; moci"><path codeLine="63" d="M1638.98,284.944 C1694.63,304.867 1750.89,333.106 1794.5,373 C1808.04,385.383 1816.87,403.873 1822.41,419.743 " fill="none" id="Org&#225;n ve&#345;ejn&#233; moci-Osoba stoj&#237;c&#237; v &#269;ele org&#225;nu ve&#345;ejn&#233; moci" style="stroke:#181818;stroke-width:1.0;"/><text fill="#000000" font-family="sans-serif" font-size="13" lengthAdjust="spacing" textLength="205" x="1809.5" y="386.0669">Stoj&#237; v &#269;ele org&#225;nu ve&#345;ejn&#233; moci</text><text fill="#000000" font-family="sans-serif" font-size="13" lengthAdjust="spacing" textLength="24" x="1794.4548" y="408.9666">0..1</text></g><!--link Org?n ve?ejn? moci to Pracovi?t?--><g id="link_Org&#225;n ve&#345;ejn&#233; moci_Pracovi&#353;t&#283;"><path codeLine="64" d="M1638.75,257.754 C1758.25,275.324 1905.26,308.894 2023.5,373 C2070.75,398.618 2096.49,436.413 2071.5,484 C2052.31,520.5501 2013.03,546.3604 1980.2,562.5938 " fill="none" id="Org&#225;n ve&#345;ejn&#233; moci-Pracovi&#353;t&#283;" style="stroke:#181818;stroke-width:1.0;"/><text fill="#000000" font-family="sans-serif" font-size="13" lengthAdjust="spacing" textLength="207" x="2082.5" y="456.5669">M&#225; pracovi&#353;t&#283; vykon&#225;vaj&#237;c&#237; &#250;kon</text></g><!--link Org?n ve?ejn? moci nebo soukromopr?vn? u?ivatel ?daj? to Za?azen? do kategorie--><g id="link_Org&#225;n ve&#345;ejn&#233; moci nebo soukromopr&#225;vn&#237; u&#382;ivatel &#250;daj&#367;_Za&#345;azen&#237; do kategorie"><path codeLine="65" d="M1847.14,55.061 C1912.28,89.48 2035.78,154.743 2115.55,196.896 " fill="none" id="Org&#225;n ve&#345;ejn&#233; moci nebo soukromopr&#225;vn&#237; u&#382;ivatel &#250;daj&#367;-Za&#345;azen&#237; do kategorie" style="stroke:#181818;stroke-width:1.0;"/><text fill="#000000" font-family="sans-serif" font-size="13" lengthAdjust="spacing" textLength="131" x="1930.5" y="98.0669">M&#225; za&#345;azen&#253; subjekt</text></g><!--link Za?azen? do kategorie to Kategorie--><g id="link_Za&#345;azen&#237; do kategorie_Kategorie"><path codeLine="66" d="M2233.49,278.22 C2281.21,322.307 2356.6,391.965 2395.48,427.884 " fill="none" id="Za&#345;azen&#237; do kategorie-Kategorie" style="stroke:#181818;stroke-width:1.0;"/><text fill="#000000" font-family="sans-serif" font-size="13" lengthAdjust="spacing" textLength="141" x="2354.5" y="386.0669">Za&#345;azuje do kategorie</text><text fill="#000000" font-family="sans-serif" font-size="13" lengthAdjust="spacing" textLength="24" x="2361.9936" y="416.8663">1..1</text></g><!--link adresn? m?sto to Pracovi?t?--><g id="link_adresn&#237; m&#237;sto_Pracovi&#353;t&#283;"><path codeLine="67" d="M1572.04,478.53 C1577.94,480.397 1583.81,482.238 1589.5,484 C1689.33,514.9254 1806.4,549.2248 1872.98,568.5454 " fill="none" id="adresn&#237; m&#237;sto-Pracovi&#353;t&#283;" style="stroke:#181818;stroke-width:1.0;"/><text fill="#000000" font-family="sans-serif" font-size="13" lengthAdjust="spacing" textLength="137" x="1738.5" y="527.0669">M&#225; adresu pracovi&#353;t&#283;</text></g><!--link Osoba to Pr?vn? forma--><g id="link_Osoba_Pr&#225;vn&#237; forma"><path codeLine="68" d="M374.928,55.061 C385.875,94.337 408.017,173.778 419.008,213.209 " fill="none" id="Osoba-Pr&#225;vn&#237; forma" style="stroke:#181818;stroke-width:1.0;"/><text fill="#000000" font-family="sans-serif" font-size="13" lengthAdjust="spacing" textLength="148" x="388.5" y="98.0669">M&#225; pr&#225;vn&#237; formu osoby</text></g><!--SRC=[hLKzRzim4DtzAmxU4pHhqR5JYw81WdReHajCBCdY2U87OBNz2Va1GIQD6OmCtGAu2wt_rICbML9YEQwTKRptxXqVxqwIAn0ivJ9Z0R_Y6SkPmXm42Zu95anAc7xDRsmfmF3gZiV2Fa2AGJI5dnE0BxQ4AEH2HTTHOal7H8_Mp-0DLjYou6OSyuc34P6gxeHTEHGJKS4sj-uhvg50bQ1-Bjl4DxTs9HS8A76st5z5o9HEeM1pMyRSSOrT9qZeh7eaja2feaCoQ29jRe_Ba671f6A6sEk6VG0PC3oD7sBBf-DSL-NH-iVnIV_tP6zZWU0p18awoJ75BBUbSGRhwczacE8Bi4yXYwj7ru1Tge_KjORAai6S629Xm_0tiagWyK_LffoZlqIOHL8FqJzOTSSA3muH4bAzmJpYNSkt3RGJDi2OvHPJz21RhS_jqQ005kPSEavAFQsm5axidn3Q21NlOwnl9vdFWF2nNGMk9sac-8AFF4LtcpYr3mA1EJliAavzjVKO7PgiLyLbpW8qKLMgpVtGrajlV1JGel3fgLOEqcpkAPF0_knuFPmHZJgfKvB-wPQlP1s4QqzUuadX6lEq1P_QYXz-dPsDBSh9s0AjIM_cocIN5M-jKVivadNygWw-OqJV0qoRMK53TRGXFTQpUmKkpiylfeVCkfFzlgIDHK6_ojhRqvyG2bic2nPkxa5tYVOBlwk5NqnjUpqVqCt0qkQUBTLnDpnGIDfLk62dAFplAd45N7dqQz2zwiFTqTugwvtIGgtVZJMLsIVwdfuym4vzTEstXMmN_XgadiKyKIGyokfQibloBbDDq34VuYSldtNSakQX-ywqizbDPhVZEYTxvxhUyTD_]--></g></svg>