<?xml version="1.0" encoding="us-ascii" standalone="no"?><svg xmlns="http://www.w3.org/2000/svg" xmlns:xlink="http://www.w3.org/1999/xlink" contentStyleType="text/css" height="85px" preserveAspectRatio="none" style="width:503px;height:85px;background:#FFFFFF;" version="1.1" viewBox="0 0 503 85" width="503px" zoomAndPan="magnify"><defs/><g><!--class Ustanoven? pr?vn?ho p?edpisu--><g id="elem_Ustanoven&#237; pr&#225;vn&#237;ho p&#345;edpisu"><rect codeLine="2" fill="#F1F1F1" height="64.2969" id="Ustanoven&#237; pr&#225;vn&#237;ho p&#345;edpisu" rx="2.5" ry="2.5" style="stroke:#181818;stroke-width:0.5;" width="482" x="7" y="7"/><ellipse cx="137.25" cy="23" fill="#ADD1B2" rx="11" ry="11" style="stroke:#181818;stroke-width:1.0;"/><path d="M139.5938,18.6719 C138.6563,18.2344 138.0625,18.0938 137.1875,18.0938 C134.5625,18.0938 132.5625,20.1719 132.5625,22.8906 L132.5625,24.0156 C132.5625,26.5938 134.6719,28.4844 137.5625,28.4844 C138.7813,28.4844 139.9375,28.1875 140.6875,27.6406 C141.2656,27.2344 141.5938,26.7813 141.5938,26.3906 C141.5938,25.9375 141.2031,25.5469 140.7344,25.5469 C140.5156,25.5469 140.3125,25.625 140.125,25.8125 C139.6719,26.2969 139.6719,26.2969 139.4844,26.3906 C139.0625,26.6563 138.375,26.7813 137.6094,26.7813 C135.5625,26.7813 134.2656,25.6875 134.2656,23.9844 L134.2656,22.8906 C134.2656,21.1094 135.5156,19.7969 137.25,19.7969 C137.8281,19.7969 138.4375,19.9531 138.9063,20.2031 C139.3906,20.4844 139.5625,20.7031 139.6563,21.1094 C139.7188,21.5156 139.75,21.6406 139.8906,21.7656 C140.0313,21.9063 140.2656,22.0156 140.4844,22.0156 C140.75,22.0156 141.0156,21.875 141.1875,21.6563 C141.2969,21.5 141.3281,21.3125 141.3281,20.8906 L141.3281,19.4688 C141.3281,19.0313 141.3125,18.9063 141.2188,18.75 C141.0625,18.4844 140.7813,18.3438 140.4844,18.3438 C140.1875,18.3438 139.9844,18.4375 139.7656,18.75 L139.5938,18.6719 Z " fill="#000000"/><text fill="#000000" font-family="sans-serif" font-size="14" lengthAdjust="spacing" textLength="213" x="157.75" y="27.8467">Ustanoven&#237; pr&#225;vn&#237;ho p&#345;edpisu</text><line style="stroke:#181818;stroke-width:0.5;" x1="8" x2="488" y1="39" y2="39"/><text fill="#000000" font-family="sans-serif" font-size="14" lengthAdjust="spacing" textLength="470" x="13" y="55.9951">M&#225; &#250;pln&#233; ozna&#269;en&#237; ustanoven&#237; v&#269;etn&#283; ozna&#269;en&#237; pr&#225;vn&#237;ho p&#345;edpisu</text><line style="stroke:#181818;stroke-width:0.5;" x1="8" x2="488" y1="63.2969" y2="63.2969"/></g><!--SRC=[AqujKSXBp4qjBaXCJWrEBKWiIYp9BrB8oyzBvKhEIImkLb0ABIv9pCilIyqxl5QXeEZmmZ8W8oDVeU3epDIKWipYKYM5QYu51T_32nKExoh8oJkyKY6_AY_nI2zOGocIvZAWM4dUaTd8yjWCvAe50000]--></g></svg>