<?xml version="1.0" encoding="us-ascii" standalone="no"?><svg xmlns="http://www.w3.org/2000/svg" xmlns:xlink="http://www.w3.org/1999/xlink" contentStyleType="text/css" height="85px" preserveAspectRatio="none" style="width:202px;height:85px;background:#FFFFFF;" version="1.1" viewBox="0 0 202 85" width="202px" zoomAndPan="magnify"><defs/><g><!--class adresn? m?sto--><g id="elem_adresn&#237; m&#237;sto"><rect codeLine="2" fill="#F1F1F1" height="64.2969" id="adresn&#237; m&#237;sto" rx="2.5" ry="2.5" style="stroke:#181818;stroke-width:0.5;" width="181" x="7" y="7"/><ellipse cx="45.4" cy="23" fill="#ADD1B2" rx="11" ry="11" style="stroke:#181818;stroke-width:1.0;"/><path d="M47.7438,18.6719 C46.8063,18.2344 46.2125,18.0938 45.3375,18.0938 C42.7125,18.0938 40.7125,20.1719 40.7125,22.8906 L40.7125,24.0156 C40.7125,26.5938 42.8219,28.4844 45.7125,28.4844 C46.9313,28.4844 48.0875,28.1875 48.8375,27.6406 C49.4156,27.2344 49.7438,26.7813 49.7438,26.3906 C49.7438,25.9375 49.3531,25.5469 48.8844,25.5469 C48.6656,25.5469 48.4625,25.625 48.275,25.8125 C47.8219,26.2969 47.8219,26.2969 47.6344,26.3906 C47.2125,26.6563 46.525,26.7813 45.7594,26.7813 C43.7125,26.7813 42.4156,25.6875 42.4156,23.9844 L42.4156,22.8906 C42.4156,21.1094 43.6656,19.7969 45.4,19.7969 C45.9781,19.7969 46.5875,19.9531 47.0563,20.2031 C47.5406,20.4844 47.7125,20.7031 47.8063,21.1094 C47.8688,21.5156 47.9,21.6406 48.0406,21.7656 C48.1813,21.9063 48.4156,22.0156 48.6344,22.0156 C48.9,22.0156 49.1656,21.875 49.3375,21.6563 C49.4469,21.5 49.4781,21.3125 49.4781,20.8906 L49.4781,19.4688 C49.4781,19.0313 49.4625,18.9063 49.3688,18.75 C49.2125,18.4844 48.9313,18.3438 48.6344,18.3438 C48.3375,18.3438 48.1344,18.4375 47.9156,18.75 L47.7438,18.6719 Z " fill="#000000"/><text fill="#000000" font-family="sans-serif" font-size="14" lengthAdjust="spacing" textLength="97" x="64.6" y="27.8467">adresn&#237; m&#237;sto</text><line style="stroke:#181818;stroke-width:0.5;" x1="8" x2="187" y1="39" y2="39"/><text fill="#000000" font-family="sans-serif" font-size="14" lengthAdjust="spacing" textLength="169" x="13" y="55.9951">M&#225; k&#243;d adresn&#237;ho m&#237;sta</text><line style="stroke:#181818;stroke-width:0.5;" x1="8" x2="187" y1="63.2969" y2="63.2969"/></g><!--SRC=[AqujKSXBp4qjBaXCJWrEBKWiIYp9BrB8oyzBvKhEIImkLb1AJ2bABSuxl5OXz_3Quf9y9OLgBWK5tyCB5R8FRqvHWCbcv4Fa4xbg0G00]--></g></svg>