<?xml version="1.0" encoding="us-ascii" standalone="no"?><svg xmlns="http://www.w3.org/2000/svg" xmlns:xlink="http://www.w3.org/1999/xlink" contentStyleType="text/css" height="236px" preserveAspectRatio="none" style="width:355px;height:236px;background:#FFFFFF;" version="1.1" viewBox="0 0 355 236" width="355px" zoomAndPan="magnify"><defs/><g><!--class Pracovi?t?--><g id="elem_Pracovi&#353;t&#283;"><rect codeLine="2" fill="#F1F1F1" height="96.8906" id="Pracovi&#353;t&#283;" rx="2.5" ry="2.5" style="stroke:#181818;stroke-width:0.5;" width="325" x="7" y="7"/><ellipse cx="127.75" cy="23" fill="#ADD1B2" rx="11" ry="11" style="stroke:#181818;stroke-width:1.0;"/><path d="M130.0938,18.6719 C129.1563,18.2344 128.5625,18.0938 127.6875,18.0938 C125.0625,18.0938 123.0625,20.1719 123.0625,22.8906 L123.0625,24.0156 C123.0625,26.5938 125.1719,28.4844 128.0625,28.4844 C129.2813,28.4844 130.4375,28.1875 131.1875,27.6406 C131.7656,27.2344 132.0938,26.7813 132.0938,26.3906 C132.0938,25.9375 131.7031,25.5469 131.2344,25.5469 C131.0156,25.5469 130.8125,25.625 130.625,25.8125 C130.1719,26.2969 130.1719,26.2969 129.9844,26.3906 C129.5625,26.6563 128.875,26.7813 128.1094,26.7813 C126.0625,26.7813 124.7656,25.6875 124.7656,23.9844 L124.7656,22.8906 C124.7656,21.1094 126.0156,19.7969 127.75,19.7969 C128.3281,19.7969 128.9375,19.9531 129.4063,20.2031 C129.8906,20.4844 130.0625,20.7031 130.1563,21.1094 C130.2188,21.5156 130.25,21.6406 130.3906,21.7656 C130.5313,21.9063 130.7656,22.0156 130.9844,22.0156 C131.25,22.0156 131.5156,21.875 131.6875,21.6563 C131.7969,21.5 131.8281,21.3125 131.8281,20.8906 L131.8281,19.4688 C131.8281,19.0313 131.8125,18.9063 131.7188,18.75 C131.5625,18.4844 131.2813,18.3438 130.9844,18.3438 C130.6875,18.3438 130.4844,18.4375 130.2656,18.75 L130.0938,18.6719 Z " fill="#000000"/><text fill="#000000" font-family="sans-serif" font-size="14" lengthAdjust="spacing" textLength="75" x="148.25" y="27.8467">Pracovi&#353;t&#283;</text><line style="stroke:#181818;stroke-width:0.5;" x1="8" x2="331" y1="39" y2="39"/><text fill="#000000" font-family="sans-serif" font-size="14" lengthAdjust="spacing" textLength="313" x="13" y="55.9951">M&#225; adresu pracovi&#353;t&#283; neevidovanou v R&#218;IAN</text><text fill="#000000" font-family="sans-serif" font-size="14" lengthAdjust="spacing" textLength="215" x="13" y="72.292">M&#225; datum otev&#345;en&#237; pracovi&#353;t&#283;</text><text fill="#000000" font-family="sans-serif" font-size="14" lengthAdjust="spacing" textLength="214" x="13" y="88.5889">M&#225; datum uzav&#345;en&#237; pracovi&#353;t&#283;</text><line style="stroke:#181818;stroke-width:0.5;" x1="8" x2="331" y1="95.8906" y2="95.8906"/></g><!--class adresn? m?sto--><g id="elem_adresn&#237; m&#237;sto"><rect codeLine="8" fill="#F1F1F1" height="48" id="adresn&#237; m&#237;sto" rx="2.5" ry="2.5" style="stroke:#181818;stroke-width:0.5;" width="129" x="16" y="181"/><ellipse cx="31" cy="197" fill="#ADD1B2" rx="11" ry="11" style="stroke:#181818;stroke-width:1.0;"/><path d="M33.3438,192.6719 C32.4063,192.2344 31.8125,192.0938 30.9375,192.0938 C28.3125,192.0938 26.3125,194.1719 26.3125,196.8906 L26.3125,198.0156 C26.3125,200.5938 28.4219,202.4844 31.3125,202.4844 C32.5313,202.4844 33.6875,202.1875 34.4375,201.6406 C35.0156,201.2344 35.3438,200.7813 35.3438,200.3906 C35.3438,199.9375 34.9531,199.5469 34.4844,199.5469 C34.2656,199.5469 34.0625,199.625 33.875,199.8125 C33.4219,200.2969 33.4219,200.2969 33.2344,200.3906 C32.8125,200.6563 32.125,200.7813 31.3594,200.7813 C29.3125,200.7813 28.0156,199.6875 28.0156,197.9844 L28.0156,196.8906 C28.0156,195.1094 29.2656,193.7969 31,193.7969 C31.5781,193.7969 32.1875,193.9531 32.6563,194.2031 C33.1406,194.4844 33.3125,194.7031 33.4063,195.1094 C33.4688,195.5156 33.5,195.6406 33.6406,195.7656 C33.7813,195.9063 34.0156,196.0156 34.2344,196.0156 C34.5,196.0156 34.7656,195.875 34.9375,195.6563 C35.0469,195.5 35.0781,195.3125 35.0781,194.8906 L35.0781,193.4688 C35.0781,193.0313 35.0625,192.9063 34.9688,192.75 C34.8125,192.4844 34.5313,192.3438 34.2344,192.3438 C33.9375,192.3438 33.7344,192.4375 33.5156,192.75 L33.3438,192.6719 Z " fill="#000000"/><text fill="#000000" font-family="sans-serif" font-size="14" lengthAdjust="spacing" textLength="97" x="45" y="201.8467">adresn&#237; m&#237;sto</text><line style="stroke:#181818;stroke-width:0.5;" x1="17" x2="144" y1="213" y2="213"/><line style="stroke:#181818;stroke-width:0.5;" x1="17" x2="144" y1="221" y2="221"/></g><!--class St?t--><g id="elem_St&#225;t"><rect codeLine="11" fill="#F1F1F1" height="48" id="St&#225;t" rx="2.5" ry="2.5" style="stroke:#181818;stroke-width:0.5;" width="63" x="228" y="181"/><ellipse cx="243" cy="197" fill="#ADD1B2" rx="11" ry="11" style="stroke:#181818;stroke-width:1.0;"/><path d="M245.3438,192.6719 C244.4063,192.2344 243.8125,192.0938 242.9375,192.0938 C240.3125,192.0938 238.3125,194.1719 238.3125,196.8906 L238.3125,198.0156 C238.3125,200.5938 240.4219,202.4844 243.3125,202.4844 C244.5313,202.4844 245.6875,202.1875 246.4375,201.6406 C247.0156,201.2344 247.3438,200.7813 247.3438,200.3906 C247.3438,199.9375 246.9531,199.5469 246.4844,199.5469 C246.2656,199.5469 246.0625,199.625 245.875,199.8125 C245.4219,200.2969 245.4219,200.2969 245.2344,200.3906 C244.8125,200.6563 244.125,200.7813 243.3594,200.7813 C241.3125,200.7813 240.0156,199.6875 240.0156,197.9844 L240.0156,196.8906 C240.0156,195.1094 241.2656,193.7969 243,193.7969 C243.5781,193.7969 244.1875,193.9531 244.6563,194.2031 C245.1406,194.4844 245.3125,194.7031 245.4063,195.1094 C245.4688,195.5156 245.5,195.6406 245.6406,195.7656 C245.7813,195.9063 246.0156,196.0156 246.2344,196.0156 C246.5,196.0156 246.7656,195.875 246.9375,195.6563 C247.0469,195.5 247.0781,195.3125 247.0781,194.8906 L247.0781,193.4688 C247.0781,193.0313 247.0625,192.9063 246.9688,192.75 C246.8125,192.4844 246.5313,192.3438 246.2344,192.3438 C245.9375,192.3438 245.7344,192.4375 245.5156,192.75 L245.3438,192.6719 Z " fill="#000000"/><text fill="#000000" font-family="sans-serif" font-size="14" lengthAdjust="spacing" textLength="31" x="257" y="201.8467">St&#225;t</text><line style="stroke:#181818;stroke-width:0.5;" x1="229" x2="290" y1="213" y2="213"/><line style="stroke:#181818;stroke-width:0.5;" x1="229" x2="290" y1="221" y2="221"/></g><!--link Pracovi?t? to adresn? m?sto--><g id="link_Pracovi&#353;t&#283;_adresn&#237; m&#237;sto"><path codeLine="14" d="M98.6952,104.158 C90.1246,113.033 82.6085,123.017 77.5,134 C70.7283,148.5586 71.7375,166.7145 74.304,180.8872 " fill="none" id="Pracovi&#353;t&#283;-adresn&#237; m&#237;sto" style="stroke:#181818;stroke-width:1.0;"/><text fill="#000000" font-family="sans-serif" font-size="13" lengthAdjust="spacing" textLength="137" x="78.5" y="147.0669">M&#225; adresu pracovi&#353;t&#283;</text><text fill="#000000" font-family="sans-serif" font-size="13" lengthAdjust="spacing" textLength="24" x="45.6413" y="169.8703">0..1</text></g><!--link Pracovi?t? to St?t--><g id="link_Pracovi&#353;t&#283;_St&#225;t"><path codeLine="15" d="M201.616,104.104 C208.006,113.906 214.57,124.222 220.5,134 C229.806,149.3446 239.636,166.9992 247.099,180.7395 " fill="none" id="Pracovi&#353;t&#283;-St&#225;t" style="stroke:#181818;stroke-width:1.0;"/><text fill="#000000" font-family="sans-serif" font-size="13" lengthAdjust="spacing" textLength="118" x="229.5" y="147.0669">M&#225; st&#225;t pracovi&#353;t&#283;</text><text fill="#000000" font-family="sans-serif" font-size="13" lengthAdjust="spacing" textLength="24" x="217.1513" y="170.081">0..1</text></g><!--SRC=[VKyx3e904EqvnSls46tjB2qqHaumWIb8P9UmirjeF8XQSG1EiN8lWu4e1Yrdtj-oG5F9jgACKwwe9Z4rjD4SPKUo5cfVKsPyqJNok2kS8s0R6b1UitMeFa1ePb_anfCs3Xw7SDkiTmC_9t4bZB3lhgn3Er5EEEv4ivnBD3PwPVTu6LehfY_r1bC9ZGolh-vn3BL8agMQiLW1wiSkzSTdI1lLjZ-duYS0]--></g></svg>