<?xml version="1.0" encoding="us-ascii" standalone="no"?><svg xmlns="http://www.w3.org/2000/svg" xmlns:xlink="http://www.w3.org/1999/xlink" contentStyleType="text/css" height="203px" preserveAspectRatio="none" style="width:294px;height:203px;background:#FFFFFF;" version="1.1" viewBox="0 0 294 203" width="294px" zoomAndPan="magnify"><defs/><g><!--class Datov? schr?nka--><g id="elem_Datov&#225; schr&#225;nka"><rect codeLine="2" fill="#F1F1F1" height="64.2969" id="Datov&#225; schr&#225;nka" rx="2.5" ry="2.5" style="stroke:#181818;stroke-width:0.5;" width="249" x="7" y="7"/><ellipse cx="67.75" cy="23" fill="#ADD1B2" rx="11" ry="11" style="stroke:#181818;stroke-width:1.0;"/><path d="M70.0938,18.6719 C69.1563,18.2344 68.5625,18.0938 67.6875,18.0938 C65.0625,18.0938 63.0625,20.1719 63.0625,22.8906 L63.0625,24.0156 C63.0625,26.5938 65.1719,28.4844 68.0625,28.4844 C69.2813,28.4844 70.4375,28.1875 71.1875,27.6406 C71.7656,27.2344 72.0938,26.7813 72.0938,26.3906 C72.0938,25.9375 71.7031,25.5469 71.2344,25.5469 C71.0156,25.5469 70.8125,25.625 70.625,25.8125 C70.1719,26.2969 70.1719,26.2969 69.9844,26.3906 C69.5625,26.6563 68.875,26.7813 68.1094,26.7813 C66.0625,26.7813 64.7656,25.6875 64.7656,23.9844 L64.7656,22.8906 C64.7656,21.1094 66.0156,19.7969 67.75,19.7969 C68.3281,19.7969 68.9375,19.9531 69.4063,20.2031 C69.8906,20.4844 70.0625,20.7031 70.1563,21.1094 C70.2188,21.5156 70.25,21.6406 70.3906,21.7656 C70.5313,21.9063 70.7656,22.0156 70.9844,22.0156 C71.25,22.0156 71.5156,21.875 71.6875,21.6563 C71.7969,21.5 71.8281,21.3125 71.8281,20.8906 L71.8281,19.4688 C71.8281,19.0313 71.8125,18.9063 71.7188,18.75 C71.5625,18.4844 71.2813,18.3438 70.9844,18.3438 C70.6875,18.3438 70.4844,18.4375 70.2656,18.75 L70.0938,18.6719 Z " fill="#000000"/><text fill="#000000" font-family="sans-serif" font-size="14" lengthAdjust="spacing" textLength="119" x="88.25" y="27.8467">Datov&#225; schr&#225;nka</text><line style="stroke:#181818;stroke-width:0.5;" x1="8" x2="255" y1="39" y2="39"/><text fill="#000000" font-family="sans-serif" font-size="14" lengthAdjust="spacing" textLength="237" x="13" y="55.9951">M&#225; identifik&#225;tor datov&#233; schr&#225;nky</text><line style="stroke:#181818;stroke-width:0.5;" x1="8" x2="255" y1="63.2969" y2="63.2969"/></g><!--class Typ datov? schr?nky--><g id="elem_Typ datov&#233; schr&#225;nky"><rect codeLine="6" fill="#F1F1F1" height="48" id="Typ datov&#233; schr&#225;nky" rx="2.5" ry="2.5" style="stroke:#181818;stroke-width:0.5;" width="181" x="41" y="148"/><ellipse cx="56" cy="164" fill="#ADD1B2" rx="11" ry="11" style="stroke:#181818;stroke-width:1.0;"/><path d="M58.3438,159.6719 C57.4063,159.2344 56.8125,159.0938 55.9375,159.0938 C53.3125,159.0938 51.3125,161.1719 51.3125,163.8906 L51.3125,165.0156 C51.3125,167.5938 53.4219,169.4844 56.3125,169.4844 C57.5313,169.4844 58.6875,169.1875 59.4375,168.6406 C60.0156,168.2344 60.3438,167.7813 60.3438,167.3906 C60.3438,166.9375 59.9531,166.5469 59.4844,166.5469 C59.2656,166.5469 59.0625,166.625 58.875,166.8125 C58.4219,167.2969 58.4219,167.2969 58.2344,167.3906 C57.8125,167.6563 57.125,167.7813 56.3594,167.7813 C54.3125,167.7813 53.0156,166.6875 53.0156,164.9844 L53.0156,163.8906 C53.0156,162.1094 54.2656,160.7969 56,160.7969 C56.5781,160.7969 57.1875,160.9531 57.6563,161.2031 C58.1406,161.4844 58.3125,161.7031 58.4063,162.1094 C58.4688,162.5156 58.5,162.6406 58.6406,162.7656 C58.7813,162.9063 59.0156,163.0156 59.2344,163.0156 C59.5,163.0156 59.7656,162.875 59.9375,162.6563 C60.0469,162.5 60.0781,162.3125 60.0781,161.8906 L60.0781,160.4688 C60.0781,160.0313 60.0625,159.9063 59.9688,159.75 C59.8125,159.4844 59.5313,159.3438 59.2344,159.3438 C58.9375,159.3438 58.7344,159.4375 58.5156,159.75 L58.3438,159.6719 Z " fill="#000000"/><text fill="#000000" font-family="sans-serif" font-size="14" lengthAdjust="spacing" textLength="149" x="70" y="168.8467">Typ datov&#233; schr&#225;nky</text><line style="stroke:#181818;stroke-width:0.5;" x1="42" x2="221" y1="180" y2="180"/><line style="stroke:#181818;stroke-width:0.5;" x1="42" x2="221" y1="188" y2="188"/></g><!--link Datov? schr?nka to Typ datov? schr?nky--><g id="link_Datov&#225; schr&#225;nka_Typ datov&#233; schr&#225;nky"><path codeLine="9" d="M131.5,71.045 C131.5,94.651 131.5,126.6046 131.5,147.9659 " fill="none" id="Datov&#225; schr&#225;nka-Typ datov&#233; schr&#225;nky" style="stroke:#181818;stroke-width:1.0;"/><text fill="#000000" font-family="sans-serif" font-size="13" lengthAdjust="spacing" textLength="154" x="132.5" y="114.0669">M&#225; typ datov&#233; schr&#225;nky</text><text fill="#000000" font-family="sans-serif" font-size="13" lengthAdjust="spacing" textLength="24" x="104.425" y="136.9692">1..1</text></g><!--SRC=[AqujKSXBp4qjBaXCJWrEBKWiIYp9BrB8oyzBvKhEIImkLb1o0OgK7LweK9oSKNHuOLvsef92DPU2WYzGA3CbDQyaCoqp-_12aAuKiCgLS9MLNBLSC5D2AWimvK4c0PLWiq9NLq79K4_FK0cdLYi51IMG8qgmIWC0]--></g></svg>